<?xml version="1.0" encoding="UTF-8" ?>
<svg version="1.1" width="48" height="48" xmlns="http://www.w3.org/2000/svg" shape-rendering="crispEdges">
<rect x="9" y="24" width="3" height="3" fill="#FFFEE9" />
<rect x="12" y="24" width="3" height="3" fill="#FFFEE9" />
<rect x="33" y="24" width="3" height="3" fill="#FFFEE9" />
<rect x="36" y="24" width="3" height="3" fill="#FFFEE9" />
<rect x="9" y="27" width="3" height="3" fill="#FFFEE9" />
<rect x="12" y="27" width="3" height="3" fill="#FFFEE9" />
<rect x="15" y="27" width="3" height="3" fill="#FFFEE9" />
<rect x="30" y="27" width="3" height="3" fill="#FFFEE9" />
<rect x="33" y="27" width="3" height="3" fill="#FFFEE9" />
<rect x="36" y="27" width="3" height="3" fill="#FFFEE9" />
<rect x="12" y="30" width="3" height="3" fill="#FFFEE9" />
<rect x="15" y="30" width="3" height="3" fill="#FFFEE9" />
<rect x="18" y="30" width="3" height="3" fill="#FFFEE9" />
<rect x="27" y="30" width="3" height="3" fill="#FFFEE9" />
<rect x="30" y="30" width="3" height="3" fill="#FFFEE9" />
<rect x="33" y="30" width="3" height="3" fill="#FFFEE9" />
<rect x="15" y="33" width="3" height="3" fill="#FFFEE9" />
<rect x="18" y="33" width="3" height="3" fill="#FFFEE9" />
<rect x="21" y="33" width="3" height="3" fill="#FFFEE9" />
<rect x="24" y="33" width="3" height="3" fill="#FFFEE9" />
<rect x="27" y="33" width="3" height="3" fill="#FFFEE9" />
<rect x="30" y="33" width="3" height="3" fill="#FFFEE9" />
<rect x="18" y="36" width="3" height="3" fill="#FFFEE9" />
<rect x="21" y="36" width="3" height="3" fill="#FFFEE9" />
<rect x="24" y="36" width="3" height="3" fill="#FFFEE9" />
<rect x="27" y="36" width="3" height="3" fill="#FFFEE9" />
<rect x="21" y="39" width="3" height="3" fill="#FFFEE9" />
<rect x="24" y="39" width="3" height="3" fill="#FFFEE9" />
</svg>