<?xml version="1.0" encoding="UTF-8" ?>
<svg version="1.1" width="96" height="96" xmlns="http://www.w3.org/2000/svg" shape-rendering="crispEdges">
<rect x="30" y="9" width="3" height="3" fill="#FFFEE9" />
<rect x="60" y="9" width="3" height="3" fill="#FFFEE9" />
<rect x="33" y="12" width="3" height="3" fill="#FFFEE9" />
<rect x="57" y="12" width="3" height="3" fill="#FFFEE9" />
<rect x="36" y="15" width="3" height="3" fill="#FFFEE9" />
<rect x="54" y="15" width="3" height="3" fill="#FFFEE9" />
<rect x="39" y="18" width="3" height="3" fill="#FFFEE9" />
<rect x="51" y="18" width="3" height="3" fill="#FFFEE9" />
<rect x="42" y="21" width="3" height="3" fill="#FFFEE9" />
<rect x="48" y="21" width="3" height="3" fill="#FFFEE9" />
<rect x="15" y="24" width="3" height="3" fill="#FFFEE9" />
<rect x="18" y="24" width="3" height="3" fill="#FFFEE9" />
<rect x="21" y="24" width="3" height="3" fill="#FFFEE9" />
<rect x="24" y="24" width="3" height="3" fill="#FFFEE9" />
<rect x="27" y="24" width="3" height="3" fill="#FFFEE9" />
<rect x="30" y="24" width="3" height="3" fill="#FFFEE9" />
<rect x="33" y="24" width="3" height="3" fill="#FFFEE9" />
<rect x="36" y="24" width="3" height="3" fill="#FFFEE9" />
<rect x="39" y="24" width="3" height="3" fill="#FFFEE9" />
<rect x="42" y="24" width="3" height="3" fill="#FFFEE9" />
<rect x="45" y="24" width="3" height="3" fill="#FFFEE9" />
<rect x="48" y="24" width="3" height="3" fill="#FFFEE9" />
<rect x="51" y="24" width="3" height="3" fill="#FFFEE9" />
<rect x="54" y="24" width="3" height="3" fill="#FFFEE9" />
<rect x="57" y="24" width="3" height="3" fill="#FFFEE9" />
<rect x="60" y="24" width="3" height="3" fill="#FFFEE9" />
<rect x="63" y="24" width="3" height="3" fill="#FFFEE9" />
<rect x="66" y="24" width="3" height="3" fill="#FFFEE9" />
<rect x="69" y="24" width="3" height="3" fill="#FFFEE9" />
<rect x="72" y="24" width="3" height="3" fill="#FFFEE9" />
<rect x="75" y="24" width="3" height="3" fill="#FFFEE9" />
<rect x="78" y="24" width="3" height="3" fill="#FFFEE9" />
<rect x="12" y="27" width="3" height="3" fill="#FFFEE9" />
<rect x="81" y="27" width="3" height="3" fill="#FFFEE9" />
<rect x="9" y="30" width="3" height="3" fill="#FFFEE9" />
<rect x="18" y="30" width="3" height="3" fill="#FFFEE9" />
<rect x="21" y="30" width="3" height="3" fill="#FFFEE9" />
<rect x="24" y="30" width="3" height="3" fill="#FFFEE9" />
<rect x="27" y="30" width="3" height="3" fill="#FFFEE9" />
<rect x="30" y="30" width="3" height="3" fill="#FFFEE9" />
<rect x="33" y="30" width="3" height="3" fill="#FFFEE9" />
<rect x="36" y="30" width="3" height="3" fill="#FFFEE9" />
<rect x="39" y="30" width="3" height="3" fill="#FFFEE9" />
<rect x="42" y="30" width="3" height="3" fill="#FFFEE9" />
<rect x="45" y="30" width="3" height="3" fill="#FFFEE9" />
<rect x="48" y="30" width="3" height="3" fill="#FFFEE9" />
<rect x="51" y="30" width="3" height="3" fill="#FFFEE9" />
<rect x="54" y="30" width="3" height="3" fill="#FFFEE9" />
<rect x="57" y="30" width="3" height="3" fill="#FFFEE9" />
<rect x="60" y="30" width="3" height="3" fill="#FFFEE9" />
<rect x="63" y="30" width="3" height="3" fill="#FFFEE9" />
<rect x="66" y="30" width="3" height="3" fill="#FFFEE9" />
<rect x="69" y="30" width="3" height="3" fill="#FFFEE9" />
<rect x="72" y="30" width="3" height="3" fill="#FFFEE9" />
<rect x="75" y="30" width="3" height="3" fill="#FFFEE9" />
<rect x="84" y="30" width="3" height="3" fill="#FFFEE9" />
<rect x="9" y="33" width="3" height="3" fill="#FFFEE9" />
<rect x="15" y="33" width="3" height="3" fill="#FFFEE9" />
<rect x="78" y="33" width="3" height="3" fill="#FFFEE9" />
<rect x="84" y="33" width="3" height="3" fill="#FFFEE9" />
<rect x="9" y="36" width="3" height="3" fill="#FFFEE9" />
<rect x="15" y="36" width="3" height="3" fill="#FFFEE9" />
<rect x="78" y="36" width="3" height="3" fill="#FFFEE9" />
<rect x="84" y="36" width="3" height="3" fill="#FFFEE9" />
<rect x="9" y="39" width="3" height="3" fill="#FFFEE9" />
<rect x="15" y="39" width="3" height="3" fill="#FFFEE9" />
<rect x="78" y="39" width="3" height="3" fill="#FFFEE9" />
<rect x="84" y="39" width="3" height="3" fill="#FFFEE9" />
<rect x="9" y="42" width="3" height="3" fill="#FFFEE9" />
<rect x="15" y="42" width="3" height="3" fill="#FFFEE9" />
<rect x="78" y="42" width="3" height="3" fill="#FFFEE9" />
<rect x="84" y="42" width="3" height="3" fill="#FFFEE9" />
<rect x="9" y="45" width="3" height="3" fill="#FFFEE9" />
<rect x="15" y="45" width="3" height="3" fill="#FFFEE9" />
<rect x="78" y="45" width="3" height="3" fill="#FFFEE9" />
<rect x="84" y="45" width="3" height="3" fill="#FFFEE9" />
<rect x="9" y="48" width="3" height="3" fill="#FFFEE9" />
<rect x="15" y="48" width="3" height="3" fill="#FFFEE9" />
<rect x="78" y="48" width="3" height="3" fill="#FFFEE9" />
<rect x="84" y="48" width="3" height="3" fill="#FFFEE9" />
<rect x="9" y="51" width="3" height="3" fill="#FFFEE9" />
<rect x="15" y="51" width="3" height="3" fill="#FFFEE9" />
<rect x="78" y="51" width="3" height="3" fill="#FFFEE9" />
<rect x="84" y="51" width="3" height="3" fill="#FFFEE9" />
<rect x="9" y="54" width="3" height="3" fill="#FFFEE9" />
<rect x="15" y="54" width="3" height="3" fill="#FFFEE9" />
<rect x="78" y="54" width="3" height="3" fill="#FFFEE9" />
<rect x="84" y="54" width="3" height="3" fill="#FFFEE9" />
<rect x="9" y="57" width="3" height="3" fill="#FFFEE9" />
<rect x="15" y="57" width="3" height="3" fill="#FFFEE9" />
<rect x="78" y="57" width="3" height="3" fill="#FFFEE9" />
<rect x="84" y="57" width="3" height="3" fill="#FFFEE9" />
<rect x="9" y="60" width="3" height="3" fill="#FFFEE9" />
<rect x="15" y="60" width="3" height="3" fill="#FFFEE9" />
<rect x="78" y="60" width="3" height="3" fill="#FFFEE9" />
<rect x="84" y="60" width="3" height="3" fill="#FFFEE9" />
<rect x="9" y="63" width="3" height="3" fill="#FFFEE9" />
<rect x="15" y="63" width="3" height="3" fill="#FFFEE9" />
<rect x="78" y="63" width="3" height="3" fill="#FFFEE9" />
<rect x="84" y="63" width="3" height="3" fill="#FFFEE9" />
<rect x="9" y="66" width="3" height="3" fill="#FFFEE9" />
<rect x="15" y="66" width="3" height="3" fill="#FFFEE9" />
<rect x="78" y="66" width="3" height="3" fill="#FFFEE9" />
<rect x="84" y="66" width="3" height="3" fill="#FFFEE9" />
<rect x="9" y="69" width="3" height="3" fill="#FFFEE9" />
<rect x="15" y="69" width="3" height="3" fill="#FFFEE9" />
<rect x="78" y="69" width="3" height="3" fill="#FFFEE9" />
<rect x="84" y="69" width="3" height="3" fill="#FFFEE9" />
<rect x="9" y="72" width="3" height="3" fill="#FFFEE9" />
<rect x="18" y="72" width="3" height="3" fill="#FFFEE9" />
<rect x="21" y="72" width="3" height="3" fill="#FFFEE9" />
<rect x="24" y="72" width="3" height="3" fill="#FFFEE9" />
<rect x="27" y="72" width="3" height="3" fill="#FFFEE9" />
<rect x="30" y="72" width="3" height="3" fill="#FFFEE9" />
<rect x="33" y="72" width="3" height="3" fill="#FFFEE9" />
<rect x="36" y="72" width="3" height="3" fill="#FFFEE9" />
<rect x="39" y="72" width="3" height="3" fill="#FFFEE9" />
<rect x="42" y="72" width="3" height="3" fill="#FFFEE9" />
<rect x="45" y="72" width="3" height="3" fill="#FFFEE9" />
<rect x="48" y="72" width="3" height="3" fill="#FFFEE9" />
<rect x="51" y="72" width="3" height="3" fill="#FFFEE9" />
<rect x="54" y="72" width="3" height="3" fill="#FFFEE9" />
<rect x="57" y="72" width="3" height="3" fill="#FFFEE9" />
<rect x="60" y="72" width="3" height="3" fill="#FFFEE9" />
<rect x="63" y="72" width="3" height="3" fill="#FFFEE9" />
<rect x="66" y="72" width="3" height="3" fill="#FFFEE9" />
<rect x="69" y="72" width="3" height="3" fill="#FFFEE9" />
<rect x="72" y="72" width="3" height="3" fill="#FFFEE9" />
<rect x="75" y="72" width="3" height="3" fill="#FFFEE9" />
<rect x="84" y="72" width="3" height="3" fill="#FFFEE9" />
<rect x="12" y="75" width="3" height="3" fill="#FFFEE9" />
<rect x="81" y="75" width="3" height="3" fill="#FFFEE9" />
<rect x="15" y="78" width="3" height="3" fill="#FFFEE9" />
<rect x="78" y="78" width="3" height="3" fill="#FFFEE9" />
<rect x="15" y="81" width="3" height="3" fill="#FFFEE9" />
<rect x="18" y="81" width="3" height="3" fill="#FFFEE9" />
<rect x="21" y="81" width="3" height="3" fill="#FFFEE9" />
<rect x="24" y="81" width="3" height="3" fill="#FFFEE9" />
<rect x="27" y="81" width="3" height="3" fill="#FFFEE9" />
<rect x="30" y="81" width="3" height="3" fill="#FFFEE9" />
<rect x="33" y="81" width="3" height="3" fill="#FFFEE9" />
<rect x="36" y="81" width="3" height="3" fill="#FFFEE9" />
<rect x="39" y="81" width="3" height="3" fill="#FFFEE9" />
<rect x="42" y="81" width="3" height="3" fill="#FFFEE9" />
<rect x="45" y="81" width="3" height="3" fill="#FFFEE9" />
<rect x="48" y="81" width="3" height="3" fill="#FFFEE9" />
<rect x="51" y="81" width="3" height="3" fill="#FFFEE9" />
<rect x="54" y="81" width="3" height="3" fill="#FFFEE9" />
<rect x="57" y="81" width="3" height="3" fill="#FFFEE9" />
<rect x="60" y="81" width="3" height="3" fill="#FFFEE9" />
<rect x="63" y="81" width="3" height="3" fill="#FFFEE9" />
<rect x="66" y="81" width="3" height="3" fill="#FFFEE9" />
<rect x="69" y="81" width="3" height="3" fill="#FFFEE9" />
<rect x="72" y="81" width="3" height="3" fill="#FFFEE9" />
<rect x="75" y="81" width="3" height="3" fill="#FFFEE9" />
<rect x="78" y="81" width="3" height="3" fill="#FFFEE9" />
</svg>